<svg width="600" height="400" viewBox="0 0 600 400" fill="none" xmlns="http://www.w3.org/2000/svg">
  <rect width="600" height="400" rx="20" fill="#F8FAFC"/>
  <rect x="50" y="50" width="200" height="250" rx="10" fill="#E2E8F0"/>
  <rect x="70" y="80" width="160" height="20" rx="5" fill="#94A3B8"/>
  <rect x="70" y="120" width="120" height="10" rx="5" fill="#94A3B8"/>
  <rect x="70" y="140" width="140" height="10" rx="5" fill="#94A3B8"/>
  <rect x="70" y="160" width="100" height="10" rx="5" fill="#94A3B8"/>
  <rect x="70" y="200" width="160" height="80" rx="5" fill="#CBD5E1"/>
  
  <rect x="280" y="50" width="270" height="150" rx="10" fill="#4F46E5" fill-opacity="0.1"/>
  <circle cx="310" cy="80" r="15" fill="#4F46E5"/>
  <rect x="340" y="70" width="180" height="10" rx="5" fill="#4F46E5" fill-opacity="0.5"/>
  <rect x="340" y="90" width="160" height="10" rx="5" fill="#4F46E5" fill-opacity="0.5"/>
  <rect x="310" y="120" width="220" height="60" rx="5" fill="#4F46E5" fill-opacity="0.3"/>
  
  <rect x="280" y="220" width="270" height="80" rx="10" fill="#10B981" fill-opacity="0.1"/>
  <circle cx="310" cy="250" r="15" fill="#10B981"/>
  <rect x="340" y="240" width="180" height="10" rx="5" fill="#10B981" fill-opacity="0.5"/>
  <rect x="340" y="260" width="160" height="10" rx="5" fill="#10B981" fill-opacity="0.5"/>
  
  <path d="M450 320 L500 370 L550 320" stroke="#4F46E5" stroke-width="8" stroke-linecap="round" stroke-linejoin="round"/>
  <path d="M500 370 L500 330" stroke="#4F46E5" stroke-width="8" stroke-linecap="round" stroke-linejoin="round"/>
  
  <circle cx="380" cy="350" r="30" fill="#F59E0B" fill-opacity="0.2"/>
  <circle cx="380" cy="350" r="15" fill="#F59E0B"/>
</svg> 